<mxfile host="app.diagrams.net" modified="2024-06-10T22:23:43.808Z" agent="Mozilla/5.0 (Windows NT 10.0; Win64; x64) AppleWebKit/537.36 (KHTML, like Gecko) Chrome/125.0.0.0 Safari/537.36" etag="JDQbw40Cpbf_gBt88lxR" version="24.5.2" type="github">
  <diagram name="PÃ¡gina-1" id="MzhAWVXdsWXZpEsDFayF">
    <mxGraphModel dx="794" dy="454" grid="1" gridSize="10" guides="1" tooltips="1" connect="1" arrows="1" fold="1" page="1" pageScale="1" pageWidth="1169" pageHeight="826" math="0" shadow="0">
      <root>
        <mxCell id="0" />
        <mxCell id="1" parent="0" />
        <mxCell id="m3T2HgTwP3p-kdqrnD-R-1" value="&lt;font style=&quot;vertical-align: inherit;&quot;&gt;&lt;font style=&quot;vertical-align: inherit;&quot;&gt;Paciente&lt;/font&gt;&lt;/font&gt;" style="shape=umlActor;verticalLabelPosition=bottom;verticalAlign=top;html=1;outlineConnect=0;" parent="1" vertex="1">
          <mxGeometry x="540" y="250" width="30" height="60" as="geometry" />
        </mxCell>
        <mxCell id="m3T2HgTwP3p-kdqrnD-R-2" value="&lt;font style=&quot;vertical-align: inherit;&quot;&gt;&lt;font style=&quot;vertical-align: inherit;&quot;&gt;Login&lt;/font&gt;&lt;/font&gt;" style="ellipse;shape=umlEntity;whiteSpace=wrap;html=1;" parent="1" vertex="1">
          <mxGeometry x="700" y="240" width="80" height="80" as="geometry" />
        </mxCell>
        <mxCell id="m3T2HgTwP3p-kdqrnD-R-3" value="" style="endArrow=none;dashed=1;html=1;rounded=0;" parent="1" source="m3T2HgTwP3p-kdqrnD-R-8" edge="1">
          <mxGeometry width="50" height="50" relative="1" as="geometry">
            <mxPoint x="554.5" y="540" as="sourcePoint" />
            <mxPoint x="554.5" y="350" as="targetPoint" />
            <Array as="points" />
          </mxGeometry>
        </mxCell>
        <mxCell id="m3T2HgTwP3p-kdqrnD-R-5" value="" style="endArrow=none;dashed=1;html=1;rounded=0;" parent="1" source="m3T2HgTwP3p-kdqrnD-R-10" edge="1">
          <mxGeometry width="50" height="50" relative="1" as="geometry">
            <mxPoint x="739.5" y="540" as="sourcePoint" />
            <mxPoint x="739.5" y="350" as="targetPoint" />
            <Array as="points" />
          </mxGeometry>
        </mxCell>
        <mxCell id="m3T2HgTwP3p-kdqrnD-R-6" value="&lt;font style=&quot;vertical-align: inherit;&quot;&gt;&lt;font style=&quot;vertical-align: inherit;&quot;&gt;agendamento&lt;/font&gt;&lt;/font&gt;" style="ellipse;shape=umlEntity;whiteSpace=wrap;html=1;" parent="1" vertex="1">
          <mxGeometry x="910" y="240" width="80" height="80" as="geometry" />
        </mxCell>
        <mxCell id="m3T2HgTwP3p-kdqrnD-R-7" value="" style="endArrow=none;dashed=1;html=1;rounded=0;" parent="1" source="m3T2HgTwP3p-kdqrnD-R-13" edge="1">
          <mxGeometry width="50" height="50" relative="1" as="geometry">
            <mxPoint x="949.5" y="540" as="sourcePoint" />
            <mxPoint x="949.5" y="350" as="targetPoint" />
            <Array as="points" />
          </mxGeometry>
        </mxCell>
        <mxCell id="m3T2HgTwP3p-kdqrnD-R-9" value="" style="endArrow=none;dashed=1;html=1;rounded=0;" parent="1" target="m3T2HgTwP3p-kdqrnD-R-8" edge="1">
          <mxGeometry width="50" height="50" relative="1" as="geometry">
            <mxPoint x="554.5" y="460" as="sourcePoint" />
            <mxPoint x="554.5" y="350" as="targetPoint" />
            <Array as="points">
              <mxPoint x="554.5" y="360" />
            </Array>
          </mxGeometry>
        </mxCell>
        <mxCell id="m3T2HgTwP3p-kdqrnD-R-8" value="" style="html=1;points=[[0,0,0,0,5],[0,1,0,0,-5],[1,0,0,0,5],[1,1,0,0,-5]];perimeter=orthogonalPerimeter;outlineConnect=0;targetShapes=umlLifeline;portConstraint=eastwest;newEdgeStyle={&quot;curved&quot;:0,&quot;rounded&quot;:0};" parent="1" vertex="1">
          <mxGeometry x="550" y="360" width="10" height="80" as="geometry" />
        </mxCell>
        <mxCell id="m3T2HgTwP3p-kdqrnD-R-11" value="" style="endArrow=none;dashed=1;html=1;rounded=0;" parent="1" target="m3T2HgTwP3p-kdqrnD-R-10" edge="1">
          <mxGeometry width="50" height="50" relative="1" as="geometry">
            <mxPoint x="739.5" y="540" as="sourcePoint" />
            <mxPoint x="739.5" y="350" as="targetPoint" />
            <Array as="points">
              <mxPoint x="739.5" y="360" />
            </Array>
          </mxGeometry>
        </mxCell>
        <mxCell id="m3T2HgTwP3p-kdqrnD-R-10" value="" style="html=1;points=[[0,0,0,0,5],[0,1,0,0,-5],[1,0,0,0,5],[1,1,0,0,-5]];perimeter=orthogonalPerimeter;outlineConnect=0;targetShapes=umlLifeline;portConstraint=eastwest;newEdgeStyle={&quot;curved&quot;:0,&quot;rounded&quot;:0};" parent="1" vertex="1">
          <mxGeometry x="735" y="360" width="10" height="80" as="geometry" />
        </mxCell>
        <mxCell id="m3T2HgTwP3p-kdqrnD-R-14" value="" style="endArrow=none;dashed=1;html=1;rounded=0;" parent="1" target="m3T2HgTwP3p-kdqrnD-R-13" edge="1">
          <mxGeometry width="50" height="50" relative="1" as="geometry">
            <mxPoint x="949.5" y="460" as="sourcePoint" />
            <mxPoint x="949.5" y="350" as="targetPoint" />
            <Array as="points">
              <mxPoint x="949.5" y="360" />
            </Array>
          </mxGeometry>
        </mxCell>
        <mxCell id="m3T2HgTwP3p-kdqrnD-R-13" value="" style="html=1;points=[[0,0,0,0,5],[0,1,0,0,-5],[1,0,0,0,5],[1,1,0,0,-5]];perimeter=orthogonalPerimeter;outlineConnect=0;targetShapes=umlLifeline;portConstraint=eastwest;newEdgeStyle={&quot;curved&quot;:0,&quot;rounded&quot;:0};" parent="1" vertex="1">
          <mxGeometry x="945" y="360" width="10" height="80" as="geometry" />
        </mxCell>
        <mxCell id="gPbNV2PuWix7QSkUeo2Z-1" value="" style="endArrow=classic;html=1;rounded=0;" parent="1" source="m3T2HgTwP3p-kdqrnD-R-8" edge="1">
          <mxGeometry width="50" height="50" relative="1" as="geometry">
            <mxPoint x="570" y="400" as="sourcePoint" />
            <mxPoint x="730" y="400" as="targetPoint" />
          </mxGeometry>
        </mxCell>
        <mxCell id="gPbNV2PuWix7QSkUeo2Z-2" value="Realizar login" style="text;html=1;align=center;verticalAlign=middle;whiteSpace=wrap;rounded=0;" parent="1" vertex="1">
          <mxGeometry x="590" y="370" width="110" height="30" as="geometry" />
        </mxCell>
        <mxCell id="gPbNV2PuWix7QSkUeo2Z-3" value="" style="endArrow=classic;html=1;rounded=0;" parent="1" edge="1">
          <mxGeometry width="50" height="50" relative="1" as="geometry">
            <mxPoint x="745" y="400" as="sourcePoint" />
            <mxPoint x="930" y="400" as="targetPoint" />
          </mxGeometry>
        </mxCell>
        <mxCell id="gPbNV2PuWix7QSkUeo2Z-4" value="Fazer agendamento" style="text;html=1;align=center;verticalAlign=middle;whiteSpace=wrap;rounded=0;" parent="1" vertex="1">
          <mxGeometry x="770" y="370" width="150" height="30" as="geometry" />
        </mxCell>
        <mxCell id="gPbNV2PuWix7QSkUeo2Z-11" value="verdadeiro int: envia contato de psicologo&amp;nbsp;" style="html=1;verticalAlign=bottom;endArrow=open;dashed=1;endSize=8;curved=0;rounded=0;entryX=1;entryY=1;entryDx=0;entryDy=-5;entryPerimeter=0;" parent="1" source="gPbNV2PuWix7QSkUeo2Z-23" edge="1">
          <mxGeometry relative="1" as="geometry">
            <mxPoint x="955" y="424.5" as="targetPoint" />
            <mxPoint x="1180" y="425" as="sourcePoint" />
          </mxGeometry>
        </mxCell>
        <mxCell id="gPbNV2PuWix7QSkUeo2Z-13" value="" style="endArrow=none;dashed=1;html=1;rounded=0;" parent="1" edge="1">
          <mxGeometry width="50" height="50" relative="1" as="geometry">
            <mxPoint x="554.68" y="542" as="sourcePoint" />
            <mxPoint x="555" y="462" as="targetPoint" />
            <Array as="points" />
          </mxGeometry>
        </mxCell>
        <mxCell id="gPbNV2PuWix7QSkUeo2Z-15" value="" style="endArrow=none;dashed=1;html=1;rounded=0;" parent="1" edge="1">
          <mxGeometry width="50" height="50" relative="1" as="geometry">
            <mxPoint x="949.5" y="533" as="sourcePoint" />
            <mxPoint x="950" y="463" as="targetPoint" />
            <Array as="points" />
          </mxGeometry>
        </mxCell>
        <mxCell id="gPbNV2PuWix7QSkUeo2Z-21" value="&lt;font style=&quot;vertical-align: inherit;&quot;&gt;&lt;font style=&quot;vertical-align: inherit;&quot;&gt;Paciente&lt;/font&gt;&lt;/font&gt;" style="shape=umlActor;verticalLabelPosition=bottom;verticalAlign=top;html=1;outlineConnect=0;" parent="1" vertex="1">
          <mxGeometry x="1180" y="240" width="30" height="60" as="geometry" />
        </mxCell>
        <mxCell id="gPbNV2PuWix7QSkUeo2Z-22" value="" style="endArrow=none;dashed=1;html=1;rounded=0;" parent="1" source="gPbNV2PuWix7QSkUeo2Z-23" edge="1">
          <mxGeometry width="50" height="50" relative="1" as="geometry">
            <mxPoint x="1194.5" y="530" as="sourcePoint" />
            <mxPoint x="1195" y="350" as="targetPoint" />
            <Array as="points">
              <mxPoint x="1194.5" y="350" />
            </Array>
          </mxGeometry>
        </mxCell>
        <mxCell id="gPbNV2PuWix7QSkUeo2Z-24" value="" style="endArrow=none;dashed=1;html=1;rounded=0;" parent="1" target="gPbNV2PuWix7QSkUeo2Z-23" edge="1">
          <mxGeometry width="50" height="50" relative="1" as="geometry">
            <mxPoint x="1194.5" y="530" as="sourcePoint" />
            <mxPoint x="1195" y="350" as="targetPoint" />
            <Array as="points" />
          </mxGeometry>
        </mxCell>
        <mxCell id="gPbNV2PuWix7QSkUeo2Z-23" value="" style="html=1;points=[[0,0,0,0,5],[0,1,0,0,-5],[1,0,0,0,5],[1,1,0,0,-5]];perimeter=orthogonalPerimeter;outlineConnect=0;targetShapes=umlLifeline;portConstraint=eastwest;newEdgeStyle={&quot;curved&quot;:0,&quot;rounded&quot;:0};" parent="1" vertex="1">
          <mxGeometry x="1190" y="360" width="10" height="80" as="geometry" />
        </mxCell>
        <mxCell id="gPbNV2PuWix7QSkUeo2Z-25" value="" style="endArrow=classic;html=1;rounded=0;" parent="1" edge="1">
          <mxGeometry width="50" height="50" relative="1" as="geometry">
            <mxPoint x="955" y="400" as="sourcePoint" />
            <mxPoint x="1190" y="400" as="targetPoint" />
          </mxGeometry>
        </mxCell>
        <mxCell id="gPbNV2PuWix7QSkUeo2Z-26" value="Envia formulario" style="text;html=1;align=center;verticalAlign=middle;whiteSpace=wrap;rounded=0;" parent="1" vertex="1">
          <mxGeometry x="1030" y="380" width="110" height="30" as="geometry" />
        </mxCell>
      </root>
    </mxGraphModel>
  </diagram>
</mxfile>
